<svg width="20" height="20" viewBox="0 0 20 20" fill="none" xmlns="http://www.w3.org/2000/svg">
<path d="M10.0007 18.3337C14.603 18.3337 18.334 14.6027 18.334 10.0003C18.334 5.39795 14.603 1.66699 10.0007 1.66699C6.26925 1.66699 3.14587 4.1194 2.08398 7.50033H4.16732" stroke="#161616" stroke-width="1.5" stroke-linecap="round" stroke-linejoin="round"/>
<path d="M10 6.66699V10.0003L11.6667 11.667" stroke="#161616" stroke-width="1.5" stroke-linecap="round" stroke-linejoin="round"/>
<path d="M1.66602 10C1.66602 10.2811 1.67868 10.5591 1.70347 10.8333M7.49935 18.3333C7.21468 18.2397 6.93661 18.1303 6.66602 18.0065M2.67384 14.1667C2.51314 13.857 2.36979 13.5361 2.24516 13.2052M4.02537 16.0887C4.2801 16.3632 4.5519 16.6201 4.83897 16.8577" stroke="#161616" stroke-width="1.5" stroke-linecap="round" stroke-linejoin="round"/>
</svg>
